<?xml version="1.0" encoding="utf-8"?>
<!-- Generator: Adobe Illustrator 21.1.0, SVG Export Plug-In . SVG Version: 6.00 Build 0)  -->
<svg version="1.1" id="Layer_1" xmlns="http://www.w3.org/2000/svg" xmlns:xlink="http://www.w3.org/1999/xlink" x="0px" y="0px"
	 viewBox="0 0 446 893" style="enable-background:new 0 0 446 893;" xml:space="preserve">
<style type="text/css">
	.st0{fill:none;stroke:#E6E6E6;stroke-width:2.9993;stroke-linecap:round;stroke-linejoin:round;stroke-miterlimit:10;}
	.st1{fill:none;stroke:#E6E6E6;stroke-width:1.4992;stroke-miterlimit:10;}
	.st2{fill:#F6F6F6;}
	.st3{fill:#878787;}
</style>
<g id="iphone">
	<path id="line1" class="st0" d="M378.2,1.5H72.6c-36.6,0-66.5,29-66.5,65.7V89v27.8v5.3c0-0.2-1.4-0.4-1.9-0.4
		c-1,0-2.6,0.4-2.6,0.9v31.5c0,0.5,1.7,0.9,2.6,0.9c0.5,0,1.9-0.1,1.9-0.3V185v4.3c0-0.9-1.3-1.7-2.3-1.7s-2.3,0.8-2.3,1.7v57.3
		c0,0.9,1.3,1.7,2.3,1.7s2.3-0.8,2.3-1.7v23.9v2.4c0-1-1.3-1.7-2.3-1.7s-2.3,0.8-2.3,1.7v58.9c0,1,1.3,1.7,2.3,1.7s2.3-0.8,2.3-1.7
		v470l0,0v6.1l0,0v1.3v15.8c0,36.6,30,66.4,66.5,66.4h305.5c36.6,0,66.3-29.8,66.3-66.4v-15.7V87.7V67.2
		C444.5,30.5,414.7,1.5,378.2,1.5z"/>
	<g>
		<path id="line2" class="st1" d="M117.2,27H74.3h-1.7C49.6,27,31,45.6,31,68.6v756.8c0,23,18.6,41.6,41.6,41.6h304.8
			c23,0,41.6-18.6,41.6-41.6V68.6c0-23-18.6-41.6-41.6-41.6h-42.9C334.5,27,117.2,27,117.2,27z"/>
		<path id="bg" class="st2" d="M377.3,33H72.6C53,33,37,49,37,68.6v756.8C37,845,53,861,72.6,861h304.8c19.6,0,35.6-16,35.6-35.6
			V68.6C412.9,49,396.9,33,377.3,33z"/>
		<g id="status">
			<g>
				<path class="st3" d="M69.7,45.8L69.7,45.8l-1.9,0.9L67.5,45l2.6-1.2h1.8v9.6h-2.2C69.7,53.4,69.7,45.8,69.7,45.8z"/>
				<path class="st3" d="M78.5,53.6c-2.5,0-3.6-2.2-3.6-4.9c0-2.8,1.2-5,3.6-5c2.6,0,3.6,2.3,3.6,4.9C82.1,51.5,80.9,53.6,78.5,53.6
					L78.5,53.6z M78.5,51.9c0.9,0,1.3-1.1,1.3-3.3c0-2.1-0.5-3.2-1.4-3.2c-0.8,0-1.4,1.1-1.4,3.2C77.1,50.8,77.6,51.9,78.5,51.9
					L78.5,51.9z"/>
				<path class="st3" d="M84.6,53.6c-0.8,0-1.3-0.6-1.3-1.3c0-0.8,0.5-1.4,1.3-1.4s1.3,0.5,1.3,1.4C85.9,53,85.4,53.6,84.6,53.6
					L84.6,53.6z M84.6,48.8c-0.8,0-1.3-0.6-1.3-1.3c0-0.8,0.5-1.4,1.3-1.4s1.3,0.5,1.3,1.4C86,48.3,85.4,48.8,84.6,48.8L84.6,48.8z"
					/>
				<path class="st3" d="M87.4,51.2c0.4,0.2,1.3,0.6,2.2,0.6c1.2,0,1.8-0.6,1.8-1.3c0-1-0.9-1.4-1.9-1.4h-0.9v-1.6h0.9
					c0.8,0,1.7-0.3,1.7-1.1c0-0.6-0.5-1-1.4-1c-0.8,0-1.6,0.3-2,0.6l-0.5-1.6c0.6-0.4,1.7-0.7,3-0.7c2,0,3.2,1.1,3.2,2.4
					c0,1-0.6,1.8-1.8,2.2l0,0c1.2,0.2,2.1,1.1,2.1,2.3c0,1.7-1.5,2.9-3.9,2.9c-1.2,0-2.3-0.3-2.8-0.7L87.4,51.2z"/>
				<path class="st3" d="M98.7,53.6c-2.5,0-3.6-2.2-3.6-4.9c0-2.8,1.2-5,3.6-5c2.6,0,3.6,2.3,3.6,4.9
					C102.3,51.5,101.1,53.6,98.7,53.6L98.7,53.6z M98.7,51.9c0.9,0,1.3-1.1,1.3-3.3c0-2.1-0.5-3.2-1.4-3.2c-0.8,0-1.4,1.1-1.4,3.2
					C97.3,50.8,97.8,51.9,98.7,51.9L98.7,51.9z"/>
			</g>
			<g>
				<ellipse class="st3" cx="352.5" cy="53.4" rx="1.7" ry="1.7"/>
				<path class="st3" d="M356.5,49.4L356.5,49.4l-0.1-0.1l0,0c-2.2-2-5.5-1.9-7.5,0.2l-0.2,0.2l-0.3,0.3c-0.4,0.4-0.4,1.1,0,1.5
					s1.1,0.4,1.5,0l0.6-0.6c1.3-1.3,3.4-1.3,4.8,0l0.4,0.4c0.4,0.4,1.1,0.4,1.5,0c0.2-0.2,0.3-0.5,0.3-0.7c0-0.3-0.1-0.5-0.3-0.7
					L356.5,49.4z"/>
				<path class="st3" d="M359.3,47.3L359,47l0,0l-0.3-0.3l-0.2-0.1c-3.5-3.1-8.9-3-12.3,0.3h-0.1l-0.6,0.6c-0.4,0.4-0.4,1,0,1.4
					s1,0.4,1.3,0l0.6-0.6l0,0c2.8-2.7,7.1-2.7,9.9-0.1l0.5,0.5c0.4,0.4,1,0.4,1.3,0C359.7,48.3,359.7,47.7,359.3,47.3z"/>
			</g>
			<path class="st3" d="M367.9,54.2c-0.5,0-1-0.4-1-0.9v-6.9c0-0.5,0.4-0.9,1-0.9H384c0.5,0,1,0.4,1,0.9v1.4h1.2v4.1H385v1.4
				c0,0.5-0.4,0.9-1,0.9H367.9z M384.3,46h-16.7v7.5h16.7V46z M368.2,46.8h12.2v6.1h-12.2V46.8z"/>
			<g>
				<rect x="319.6" y="51.8" class="st3" width="2.2" height="3.3"/>
				<rect x="323.5" y="49.5" class="st3" width="2.2" height="5.6"/>
				<rect x="327.4" y="47.7" class="st3" width="2.2" height="7.4"/>
				<rect x="331.2" y="46.2" class="st3" width="2.2" height="8.9"/>
				<rect x="335.1" y="44.8" class="st3" width="2.2" height="10.3"/>
			</g>
		</g>
		<path id="microphone" class="st3" d="M156.8,857.8c45.3,0,90.7,0,136,0c2.9,0,2.9-4.6,0-4.6c-45.3,0-90.7,0-136,0
			C153.8,853.3,153.8,857.8,156.8,857.8L156.8,857.8z"/>
	</g>
</g>
</svg>
