<?xml version="1.0" encoding="utf-8"?>
<!-- Generator: Adobe Illustrator 21.1.0, SVG Export Plug-In . SVG Version: 6.00 Build 0)  -->
<svg version="1.1" id="Layer_1" xmlns="http://www.w3.org/2000/svg" xmlns:xlink="http://www.w3.org/1999/xlink" x="0px" y="0px"
	 viewBox="0 0 446 2047.6" style="enable-background:new 0 0 446 2047.6;" xml:space="preserve">
<style type="text/css">
	.st0{fill:#E91E63;}
	.st1{fill:none;stroke:#E6E6E6;stroke-width:2.9993;stroke-linecap:round;stroke-linejoin:round;stroke-miterlimit:10;}
	.st2{fill:none;stroke:#E6E6E6;stroke-width:1.4992;stroke-miterlimit:10;}
	.st3{fill:#F6F6F6;}
	.st4{fill:#878787;}
</style>
<path class="st0" d="M0,0v2047.6h446V0H0z M413,1402.7c0,19.6-16,35.6-35.6,35.6H72.6c-19.6,0-35.6-16-35.6-35.6V645.9
	c0-19.6,16-35.6,35.6-35.6h304.7c19.6,0,35.6,16,35.7,35.6V1402.7z"/>
<g id="iphone">
	<path id="line1" class="st1" d="M378.2,578.8H72.6c-36.6,0-66.5,29-66.5,65.7v21.8v27.8v5.3c0-0.2-1.4-0.4-1.9-0.4
		c-1,0-2.6,0.4-2.6,0.9v31.5c0,0.5,1.7,0.9,2.6,0.9c0.5,0,1.9-0.1,1.9-0.3v30.3v4.3c0-0.9-1.3-1.7-2.3-1.7s-2.3,0.8-2.3,1.7v57.3
		c0,0.9,1.3,1.7,2.3,1.7s2.3-0.8,2.3-1.7v23.9v2.4c0-1-1.3-1.7-2.3-1.7s-2.3,0.8-2.3,1.7v58.9c0,1,1.3,1.7,2.3,1.7s2.3-0.8,2.3-1.7
		v470l0,0v6.1l0,0v1.3v15.8c0,36.6,30,66.4,66.5,66.4h305.5c36.6,0,66.3-29.8,66.3-66.4v-15.7V665v-20.5
		C444.5,607.8,414.7,578.8,378.2,578.8z"/>
	<g>
		<path id="line2" class="st2" d="M117.2,604.3H74.3h-1.7c-23,0-41.6,18.6-41.6,41.6v756.8c0,23,18.6,41.6,41.6,41.6h304.8
			c23,0,41.6-18.6,41.6-41.6V645.9c0-23-18.6-41.6-41.6-41.6h-42.9L117.2,604.3L117.2,604.3z"/>
		<g>
			<path class="st3" d="M377.3,610.3H72.6c-19.6,0-35.6,16-35.6,35.6v44.2h376v-44.2C412.9,626.3,396.9,610.3,377.3,610.3z"/>
			<path class="st3" d="M37,1402.7c0,19.6,16,35.6,35.6,35.6h304.8c19.6,0,35.6-16,35.6-35.6v-44.2H37V1402.7z"/>
		</g>
		<g id="status">
			<g>
				<path class="st4" d="M69.7,623.1L69.7,623.1l-1.9,0.9l-0.3-1.7l2.6-1.2h1.8v9.6h-2.2C69.7,630.7,69.7,623.1,69.7,623.1z"/>
				<path class="st4" d="M78.5,630.9c-2.5,0-3.6-2.2-3.6-4.9c0-2.8,1.2-5,3.6-5c2.6,0,3.6,2.3,3.6,4.9
					C82.1,628.8,80.9,630.9,78.5,630.9L78.5,630.9z M78.5,629.2c0.9,0,1.3-1.1,1.3-3.3c0-2.1-0.5-3.2-1.4-3.2
					c-0.8,0-1.4,1.1-1.4,3.2C77.1,628.1,77.6,629.2,78.5,629.2L78.5,629.2z"/>
				<path class="st4" d="M84.6,630.9c-0.8,0-1.3-0.6-1.3-1.3c0-0.8,0.5-1.4,1.3-1.4s1.3,0.5,1.3,1.4
					C85.9,630.3,85.4,630.9,84.6,630.9L84.6,630.9z M84.6,626.1c-0.8,0-1.3-0.6-1.3-1.3c0-0.8,0.5-1.4,1.3-1.4s1.3,0.5,1.3,1.4
					C86,625.6,85.4,626.1,84.6,626.1L84.6,626.1z"/>
				<path class="st4" d="M87.4,628.5c0.4,0.2,1.3,0.6,2.2,0.6c1.2,0,1.8-0.6,1.8-1.3c0-1-0.9-1.4-1.9-1.4h-0.9v-1.6h0.9
					c0.8,0,1.7-0.3,1.7-1.1c0-0.6-0.5-1-1.4-1c-0.8,0-1.6,0.3-2,0.6l-0.5-1.6c0.6-0.4,1.7-0.7,3-0.7c2,0,3.2,1.1,3.2,2.4
					c0,1-0.6,1.8-1.8,2.2l0,0c1.2,0.2,2.1,1.1,2.1,2.3c0,1.7-1.5,2.9-3.9,2.9c-1.2,0-2.3-0.3-2.8-0.7L87.4,628.5z"/>
				<path class="st4" d="M98.7,630.9c-2.5,0-3.6-2.2-3.6-4.9c0-2.8,1.2-5,3.6-5c2.6,0,3.6,2.3,3.6,4.9
					C102.3,628.8,101.1,630.9,98.7,630.9L98.7,630.9z M98.7,629.2c0.9,0,1.3-1.1,1.3-3.3c0-2.1-0.5-3.2-1.4-3.2
					c-0.8,0-1.4,1.1-1.4,3.2C97.3,628.1,97.8,629.2,98.7,629.2L98.7,629.2z"/>
			</g>
			<g>
				<ellipse class="st4" cx="352.5" cy="630.7" rx="1.7" ry="1.7"/>
				<path class="st4" d="M356.5,626.7L356.5,626.7l-0.1-0.1l0,0c-2.2-2-5.5-1.9-7.5,0.2l-0.2,0.2l-0.3,0.3c-0.4,0.4-0.4,1.1,0,1.5
					s1.1,0.4,1.5,0l0.6-0.6c1.3-1.3,3.4-1.3,4.8,0l0.4,0.4c0.4,0.4,1.1,0.4,1.5,0c0.2-0.2,0.3-0.5,0.3-0.7c0-0.3-0.1-0.5-0.3-0.7
					L356.5,626.7z"/>
				<path class="st4" d="M359.3,624.6l-0.3-0.3l0,0l-0.3-0.3l-0.2-0.1c-3.5-3.1-8.9-3-12.3,0.3h-0.1l-0.6,0.6c-0.4,0.4-0.4,1,0,1.4
					s1,0.4,1.3,0l0.6-0.6l0,0c2.8-2.7,7.1-2.7,9.9-0.1l0.5,0.5c0.4,0.4,1,0.4,1.3,0C359.7,625.6,359.7,625,359.3,624.6z"/>
			</g>
			<path class="st4" d="M367.9,631.5c-0.5,0-1-0.4-1-0.9v-6.9c0-0.5,0.4-0.9,1-0.9H384c0.5,0,1,0.4,1,0.9v1.4h1.2v4.1H385v1.4
				c0,0.5-0.4,0.9-1,0.9H367.9z M384.3,623.3h-16.7v7.5h16.7V623.3z M368.2,624.1h12.2v6.1h-12.2V624.1z"/>
			<g>
				<rect x="319.6" y="629.1" class="st4" width="2.2" height="3.3"/>
				<rect x="323.5" y="626.8" class="st4" width="2.2" height="5.6"/>
				<rect x="327.4" y="625" class="st4" width="2.2" height="7.4"/>
				<rect x="331.2" y="623.5" class="st4" width="2.2" height="8.9"/>
				<rect x="335.1" y="622.1" class="st4" width="2.2" height="10.3"/>
			</g>
		</g>
		<path id="microphone" class="st4" d="M156.8,1435.1c45.3,0,90.7,0,136,0c2.9,0,2.9-4.6,0-4.6c-45.3,0-90.7,0-136,0
			C153.8,1430.6,153.8,1435.1,156.8,1435.1L156.8,1435.1z"/>
	</g>
</g>
</svg>
