<?xml version="1.0" encoding="UTF-8" standalone="no"?><!-- Generator: Gravit.io --><svg xmlns="http://www.w3.org/2000/svg" xmlns:xlink="http://www.w3.org/1999/xlink" style="isolation:isolate" viewBox="0 0 450 900" width="450pt" height="900pt"><defs><clipPath id="_clipPath_dfIcurldaWgDXyrY6icvXt0X57hpVqsc"><rect width="450" height="900"/></clipPath></defs><g clip-path="url(#_clipPath_dfIcurldaWgDXyrY6icvXt0X57hpVqsc)"><g><clipPath id="_clipPath_eMjDvMOh4jhBPbVkutxISxCY2ZDKnyrp"><path d=" M 0 0 L 450 0 L 450 900 L 0 900 L 0 0 Z " fill="rgb(255,255,255)"/></clipPath><g clip-path="url(#_clipPath_eMjDvMOh4jhBPbVkutxISxCY2ZDKnyrp)"><path d=" M 380.274 5.164 L 74.483 5.164 C 37.859 5.164 7.895 34.194 7.895 70.818 L 7.895 92.642 L 7.895 120.444 L 7.895 125.723 C 7.895 125.508 6.53 125.368 5.981 125.368 C 5.022 125.368 3.34 125.786 3.34 126.296 L 3.34 157.804 C 3.34 158.317 5.022 158.73 5.981 158.73 C 6.53 158.73 7.895 158.592 7.895 158.38 L 7.895 188.565 L 7.895 192.903 C 7.895 191.976 6.574 191.219 5.618 191.219 C 4.662 191.219 3.34 191.976 3.34 192.903 L 3.34 250.184 C 3.34 251.115 4.662 251.871 5.618 251.871 C 6.574 251.871 7.895 251.115 7.895 250.184 L 7.895 274.121 L 7.895 276.565 C 7.895 275.607 6.574 274.831 5.618 274.831 C 4.662 274.831 3.34 275.607 3.34 276.565 L 3.34 335.482 C 3.34 336.44 4.662 337.215 5.618 337.215 C 6.574 337.215 7.895 336.44 7.895 335.482 L 7.895 805.262 L 7.895 811.335 L 7.895 812.647 L 7.895 828.453 C 7.895 865.077 37.859 894.837 74.483 894.837 L 380.274 894.837 C 416.896 894.837 446.659 865.077 446.659 828.453 L 446.659 812.647 L 446.659 91.366 L 446.659 70.818 C 446.659 34.194 416.896 5.164 380.274 5.164 Z " fill="none" vector-effect="non-scaling-stroke" stroke-width="3" stroke="rgb(230,230,230)" stroke-linejoin="miter" stroke-linecap="square" stroke-miterlimit="3"/><path d=" M 119.508 30.497 L 76.618 30.497 L 74.887 30.497 C 51.918 30.497 33.296 49.121 33.296 72.086 L 33.296 829.351 C 33.296 852.319 51.918 870.936 74.887 870.936 L 379.871 870.936 C 402.839 870.936 421.46 852.319 421.46 829.351 L 421.46 72.086 C 421.46 49.121 402.839 30.497 379.871 30.497 L 336.982 30.497 L 119.508 30.497 Z " fill="none" vector-effect="non-scaling-stroke" stroke-width="1.5" stroke="rgb(230,230,230)" stroke-linejoin="miter" stroke-linecap="square" stroke-miterlimit="3"/><path d=" M 379.871 36.497 L 74.887 36.497 C 55.262 36.497 39.296 52.462 39.296 72.086 L 39.296 738.865 L 415.461 738.865 L 415.461 72.086 C 415.461 52.462 399.495 36.497 379.871 36.497 Z " fill="rgb(255,255,255)"/><path d=" M 39.296 829.351 C 39.296 848.973 55.262 864.937 74.887 864.937 L 379.871 864.937 C 399.495 864.937 415.461 848.973 415.461 829.351 L 415.461 653.778 L 39.296 653.778 L 39.296 829.351 Z " fill="rgb(255,255,255)"/><path d=" M 371.886 55.422 C 372.81 55.422 373.557 56.172 373.557 57.097 C 373.557 58.02 372.81 58.77 371.886 58.77 C 370.962 58.77 370.216 58.02 370.216 57.097 C 370.216 56.172 370.962 55.422 371.886 55.422 Z " fill="rgb(135,135,135)"/><path d=" M 375.878 53.07 L 375.803 52.999 L 375.729 52.929 L 375.686 52.892 C 373.525 50.929 370.218 51.006 368.157 53.07 L 367.914 53.313 L 367.578 53.645 C 367.171 54.054 367.176 54.717 367.583 55.126 C 367.992 55.535 368.656 55.54 369.063 55.131 L 369.641 54.552 C 370.95 53.24 373.085 53.24 374.396 54.552 L 374.813 54.957 C 375.217 55.359 375.874 55.359 376.28 54.951 C 376.476 54.76 376.584 54.496 376.584 54.219 C 376.587 53.942 376.478 53.679 376.283 53.485 L 375.878 53.07 Z " fill="rgb(135,135,135)"/><path d=" M 378.727 51.003 L 378.378 50.656 L 378.373 50.65 L 378.101 50.378 L 377.946 50.253 C 374.423 47.16 369.066 47.255 365.658 50.538 L 365.606 50.578 L 364.977 51.203 C 364.606 51.575 364.608 52.182 364.983 52.554 C 365.355 52.929 365.96 52.93 366.332 52.557 L 366.96 51.931 L 366.971 51.92 C 369.727 49.255 374.101 49.239 376.881 51.861 L 377.374 52.355 C 377.746 52.729 378.352 52.726 378.724 52.355 C 379.096 51.979 379.099 51.377 378.727 51.003 Z " fill="rgb(135,135,135)"/><path d=" M 71.103 49.5 L 71.074 49.5 L 69.245 50.369 L 68.875 48.688 L 71.426 47.509 L 73.273 47.509 L 73.273 57.1 L 71.103 57.1 L 71.103 49.5 Z " fill="rgb(135,135,135)"/><path d=" M 79.9 55.564 C 80.771 55.564 81.244 54.473 81.244 52.288 C 81.244 50.161 80.784 49.043 79.885 49.043 C 79.044 49.043 78.513 50.117 78.513 52.288 C 78.498 54.502 79.03 55.564 79.885 55.564 L 79.9 55.564 Z  M 79.871 57.26 C 77.392 57.26 76.3 55.033 76.286 52.317 C 76.286 49.53 77.452 47.344 79.931 47.344 C 82.483 47.344 83.501 49.633 83.501 52.258 C 83.501 55.211 82.305 57.26 79.885 57.26 L 79.871 57.26 Z " fill="rgb(135,135,135)"/><path d=" M 86.03 52.495 C 85.261 52.495 84.731 51.921 84.731 51.152 C 84.731 50.354 85.277 49.795 86.042 49.795 C 86.826 49.795 87.343 50.339 87.357 51.152 C 87.357 51.921 86.84 52.495 86.042 52.495 L 86.03 52.495 Z  M 86.015 57.26 C 85.247 57.26 84.717 56.688 84.717 55.917 C 84.717 55.122 85.261 54.561 86.03 54.561 C 86.812 54.561 87.329 55.104 87.343 55.917 C 87.343 56.688 86.826 57.26 86.03 57.26 L 86.015 57.26 Z " fill="rgb(135,135,135)"/><path d=" M 88.829 54.898 C 89.225 55.122 90.141 55.489 91.057 55.489 C 92.222 55.489 92.81 54.927 92.81 54.219 C 92.81 53.26 91.866 52.833 90.893 52.833 L 89.976 52.833 L 89.976 51.225 L 90.849 51.225 C 91.6 51.225 92.546 50.932 92.546 50.116 C 92.546 49.544 92.088 49.116 91.129 49.116 C 90.348 49.116 89.52 49.455 89.138 49.69 L 88.68 48.067 C 89.256 47.7 90.391 47.344 91.644 47.344 C 93.681 47.344 94.817 48.423 94.817 49.737 C 94.817 50.752 94.244 51.566 93.063 51.964 L 93.063 51.992 C 94.214 52.198 95.142 53.067 95.142 54.339 C 95.142 56.02 93.65 57.26 91.218 57.26 C 89.976 57.26 88.932 56.935 88.37 56.596 L 88.829 54.898 Z " fill="rgb(135,135,135)"/><path d=" M 100.09 55.564 C 100.96 55.564 101.432 54.473 101.432 52.288 C 101.432 50.161 100.975 49.043 100.075 49.043 C 99.235 49.043 98.702 50.117 98.702 52.288 C 98.689 54.502 99.22 55.564 100.075 55.564 L 100.09 55.564 Z  M 100.061 57.26 C 97.583 57.26 96.49 55.033 96.476 52.317 C 96.476 49.53 97.639 47.344 100.118 47.344 C 102.671 47.344 103.69 49.633 103.69 52.258 C 103.69 55.211 102.495 57.26 100.075 57.26 L 100.061 57.26 Z " fill="rgb(135,135,135)"/><path d=" M 387.643 50.428 L 399.799 50.407 L 399.81 56.485 L 387.649 56.499 L 387.643 50.428 Z  M 403.704 49.707 L 386.993 49.731 L 387 57.2 L 403.715 57.177 L 403.704 49.707 Z  M 387.296 57.826 C 386.764 57.829 386.334 57.429 386.334 56.94 L 386.321 49.993 C 386.321 49.506 386.754 49.108 387.282 49.106 L 403.406 49.079 C 403.938 49.082 404.368 49.474 404.376 49.964 L 404.373 51.402 L 405.619 51.393 L 405.626 55.49 L 404.381 55.492 L 404.385 56.914 C 404.385 57.399 403.954 57.797 403.42 57.8 L 387.296 57.826 Z " fill="rgb(135,135,135)"/><path d=" M 341.225 58.77 L 339.033 58.77 L 339.033 55.481 L 341.225 55.481 L 341.225 58.77 Z " fill="rgb(135,135,135)"/><path d=" M 345.087 58.77 L 342.896 58.77 L 342.896 53.127 L 345.087 53.127 L 345.087 58.77 Z " fill="rgb(135,135,135)"/><path d=" M 348.954 58.77 L 346.76 58.77 L 346.76 51.403 L 348.954 51.403 L 348.954 58.77 Z " fill="rgb(135,135,135)"/><path d=" M 352.82 58.77 L 350.622 58.77 L 350.622 49.838 L 352.82 49.838 L 352.82 58.77 Z " fill="rgb(135,135,135)"/><path d=" M 356.68 58.77 L 354.486 58.77 L 354.486 48.43 L 356.68 48.43 L 356.68 58.77 Z " fill="rgb(135,135,135)"/><path d=" M 159.18 861.51 L 295.227 861.51 C 298.163 861.51 298.163 856.955 295.227 856.955 L 159.18 856.955 C 156.243 856.955 156.243 861.51 159.18 861.51 Z " fill="rgb(135,135,135)"/></g></g></g></svg>