<svg xmlns="http://www.w3.org/2000/svg" viewBox="0 0 141.92 193.42"><defs><style>.cls-1{fill:#fff;}</style></defs><title>Asset 3</title><g id="Layer_2" data-name="Layer 2"><g id="Layer_1-2" data-name="Layer 1"><g id="Share"><path class="cls-1" d="M43.53,43.07,67.05,19.83v99.83a3.92,3.92,0,0,0,7.83,0v-100L99.18,43.1a3.91,3.91,0,0,0,5.43-5.64L70.93,5,38,37.5a3.91,3.91,0,1,0,5.5,5.57Z"/><path class="cls-1" d="M71,128.57a8.92,8.92,0,0,1-8.91-8.91V31.8L47,46.62h0A8.91,8.91,0,0,1,34.51,33.94L67.42,1.44a5,5,0,0,1,7,0l33.68,32.46A8.91,8.91,0,0,1,95.71,46.7L79.88,31.44v88.22A8.93,8.93,0,0,1,71,128.57ZM43.53,43.07h0ZM68,14.92a5.82,5.82,0,0,1,1,.3,5,5,0,0,1,1.92,1.42,5.08,5.08,0,0,1,2-1.57,4.53,4.53,0,0,1,1-.29L71,12Z"/><path class="cls-1" d="M99.66,61a3.92,3.92,0,0,0,0,7.83H129.1v111.8H12.83V68.79H43.76a3.92,3.92,0,0,0,0-7.83H5V188.42H136.93V61Z"/><path class="cls-1" d="M136.92,193.42H5a5,5,0,0,1-5-5V61a5,5,0,0,1,5-5H43.76a8.92,8.92,0,0,1,0,17.83H17.83v101.8H124.1V73.79H99.66a8.92,8.92,0,0,1,0-17.83h37.26a5,5,0,0,1,5,5V188.42A5,5,0,0,1,136.92,193.42Z"/></g></g></g></svg>