<?xml version="1.0" encoding="utf-8"?>
<!-- Generator: Adobe Illustrator 21.1.0, SVG Export Plug-In . SVG Version: 6.00 Build 0)  -->
<svg version="1.1" id="Layer_1" xmlns="http://www.w3.org/2000/svg" xmlns:xlink="http://www.w3.org/1999/xlink" x="0px" y="0px"
	 viewBox="0 0 64 64" style="enable-background:new 0 0 64 64;" xml:space="preserve">
<style type="text/css">
	.st0{opacity:0.2;enable-background:new    ;}
	.st1{fill:#4F4F4F;}
	.st2{fill:#2E72DE;}
	.st3{fill:#FFFFFF;}
	.st4{opacity:0.1;fill:#FFFFFF;enable-background:new    ;}
</style>
<path class="st0" d="M28.4,24c16.4-4,31.4-1.8,33.4,4.9c2,6.6-9.7,15.2-26.2,19.2S4.2,49.8,2.2,43.2S12,27.9,28.4,24z"/>
<path class="st1" d="M30,13c-14,0-10.7,12.3-17.9,16.2C4.8,33.3,8.8,37,10,41c2,6.6,7.5,2,24-2c16.4-3.9,20-3.4,18-10
	c-1.2-3.9,2.7-7.6-5.8-7.9C39.3,21.4,40,13,30,13z"/>
<path class="st2" d="M28.4,23c16.4-4,31.4-1.8,33.4,4.9S52,43.1,35.6,47S4.2,48.8,2.2,42.2S12,26.9,28.4,23z"/>
<path class="st0" d="M32.6,38.8c7.7-1.8,14.5-0.6,15.3,2.8c0.7,3.4-4.9,7.6-12.6,9.5c-7.7,1.8-14.5,0.6-15.3-2.8
	S24.9,40.7,32.6,38.8z"/>
<path class="st3" d="M32.6,37.8c7.7-1.8,14.5-0.6,15.3,2.8c0.7,3.4-4.9,7.6-12.6,9.5c-7.7,1.8-14.5,0.6-15.3-2.8
	S24.9,39.7,32.6,37.8z"/>
<path class="st4" d="M43.1,21c-4.7,0.1-9.7,0.8-14.7,2C13,26.7,1.6,34.5,2.1,41c0.7-6.4,11.8-13.6,26.3-17c5-1.2,10.1-1.9,14.7-2
	c10.2-0.2,17.3,2.4,18.7,6.8c0.1,0.3,0.1,0.6,0.2,1c0.1-0.7,0-1.3-0.2-2C60.5,23.4,53.3,20.8,43.1,21z"/>
<path class="st4" d="M30,13c-14,0-10.7,12.3-17.9,16.2c-3.6,2.1-4.4,4-4.2,5.9c0.2-1.6,1.2-3.2,4.2-4.9C19.3,26.3,16,14,30,14
	c10,0,9.3,8.4,16.2,8.1c4.5,0.2,5.5,1.3,5.7,2.9c0.1-2.1-0.2-3.7-5.7-3.9C39.3,21.4,40,13,30,13z M51.8,27.6c0,0.8,0,1.6,0.2,2.4
	c0.2,0.8,0.4,1.5,0.5,2.2c0.1-0.8-0.1-1.9-0.5-3.2C51.9,28.5,51.8,28.1,51.8,27.6z"/>
</svg>
